<svg class="img-fluid" id="outputsvg" xmlns="http://www.w3.org/2000/svg" style="transform: none; transform-origin: 50% 50% 0px; cursor: move;" width="1720" height="760" viewBox="0 0 17200 7600"><g id="l4Jyw1BcY8z6tbIiB8Qg7Up" fill="rgb(255,255,255)" style="transform: none;"><g><path id="pYvXNwfY" d="M1327 7407 c-7 -4 -32 -7 -57 -6 -59 2 -289 -18 -365 -32 -150 -25 -368 -117 -494 -206 -107 -76 -231 -207 -275 -291 -119 -230 -103 -635 41 -1022 81 -217 248 -525 368 -680 350 -450 974 -854 1534 -994 400 -101 1186 -131 1686 -66 303 40 390 49 461 50 66 0 72 -2 78 -22 4 -13 11 -243 16 -513 16 -847 23 -984 65 -1159 123 -521 415 -974 901 -1396 150 -130 338 -318 359 -359 15 -30 15 -35 1 -49 -14 -14 -22 -14 -88 1 -170 39 -379 60 -1043 107 -459 32 -717 54 -830 70 -38 6 -122 17 -185 26 -324 43 -640 167 -937 365 -157 106 -277 218 -436 409 -133 160 -232 243 -378 318 -134 68 -193 82 -366 89 -181 8 -299 -16 -392 -78 -227 -152 -285 -422 -145 -676 66 -120 164 -193 306 -229 122 -32 268 -1 297 63 17 37 13 81 -9 103 -18 18 -29 19 -88 14 -113 -10 -232 34 -304 114 -47 52 -62 100 -55 180 6 81 40 134 116 179 90 54 162 73 275 73 112 0 176 -14 270 -58 176 -83 254 -143 521 -404 341 -333 527 -458 894 -603 273 -107 536 -147 1291 -195 894 -56 1143 -93 1670 -245 102 -29 214 -59 250 -66 36 -6 77 -18 92 -26 26 -13 28 -12 34 12 3 14 3 37 -1 52 -13 53 -75 176 -130 259 -91 137 -140 180 -725 644 -512 406 -686 605 -857 980 -105 230 -119 306 -124 715 -9 655 3 1273 26 1346 15 46 383 187 936 359 145 45 296 93 334 105 173 58 980 293 1495 436 957 266 1647 437 2125 524 1115 205 2087 295 3015 281 426 -7 592 -16 990 -57 991 -101 1877 -352 2573 -730 373 -203 577 -354 842 -624 123 -125 169 -151 205 -115 62 62 25 227 -75 338 -133 148 -618 452 -1025 645 -69 32 -152 71 -185 87 -74 35 -317 133 -525 210 -275 103 -612 205 -920 280 -118 28 -235 58 -260 65 -127 38 -491 104 -740 134 -385 47 -550 55 -1095 55 -659 0 -711 -3 -1720 -125 -225 -27 -432 -53 -460 -59 -27 -6 -162 -29 -300 -51 -275 -45 -591 -108 -961 -193 -251 -57 -1067 -260 -1189 -296 -38 -11 -173 -49 -300 -85 -514 -143 -902 -264 -1905 -590 -382 -125 -653 -208 -731 -225 -76 -17 -104 -8 -127 38 -25 48 -28 63 -47 217 -21 174 -43 277 -105 485 -96 322 -184 519 -315 703 -292 410 -694 747 -1235 1035 -172 91 -472 208 -674 262 -176 48 -567 95 -739 90 -26 0 -53 2 -60 7 -16 10 -75 10 -90 0z m595 -242 c224 -29 528 -105 705 -176 273 -108 555 -264 783 -432 324 -239 506 -458 691 -832 141 -286 187 -450 209 -747 9 -120 -1 -503 -14 -515 -2 -2 -124 -33 -272 -69 -401 -96 -617 -133 -925 -155 -528 -38 -1286 145 -1748 423 -313 187 -565 447 -706 728 -166 330 -226 846 -130 1123 75 218 312 453 559 556 98 41 234 79 336 96 114 18 380 18 512 0z"/><path id="pErblkcnb" d="M6950 4264 c-107 -36 -175 -78 -251 -153 -75 -75 -117 -153 -150 -276 -19 -67 -22 -108 -22 -255 0 -333 57 -467 307 -716 175 -174 277 -219 501 -219 192 0 315 44 315 112 0 33 -51 80 -101 93 -41 11 -57 9 -158 -21 -244 -73 -488 78 -611 379 -38 95 -53 172 -53 272 0 148 44 269 138 383 97 116 232 170 375 149 100 -14 177 -49 241 -109 112 -104 151 -198 151 -363 1 -185 -37 -253 -187 -343 -71 -42 -105 -84 -112 -138 -5 -34 -3 -40 20 -48 46 -18 123 13 256 100 102 68 179 90 311 90 125 0 279 -35 349 -79 36 -22 49 -38 63 -76 39 -111 259 -276 368 -276 16 0 40 4 54 10 l25 9 -98 203 c-184 381 -206 451 -198 624 5 114 27 177 80 232 48 50 86 70 156 81 126 20 236 -22 346 -133 99 -99 160 -197 287 -456 l110 -225 -51 -170 c-64 -213 -74 -269 -69 -376 5 -110 21 -139 78 -139 97 0 179 169 180 370 1 273 76 370 276 358 109 -7 147 -33 362 -251 208 -210 279 -271 367 -315 82 -41 156 -56 256 -50 137 7 214 59 245 165 32 111 5 244 -80 386 -45 76 -98 121 -235 201 -152 89 -292 139 -426 151 -121 11 -185 67 -185 162 0 60 44 189 84 249 150 222 465 216 764 -15 252 -195 625 -638 755 -896 70 -141 125 -191 256 -236 74 -26 83 -25 75 9 -14 63 -70 249 -129 431 -73 227 -104 356 -88 372 20 20 116 -40 413 -255 318 -230 581 -357 747 -360 58 -1 77 3 100 20 58 43 59 66 37 551 -6 125 -5 143 9 149 19 7 83 -41 242 -181 362 -320 733 -536 920 -538 113 -1 167 41 201 158 15 52 16 84 9 250 -16 391 -14 439 26 522 25 52 90 88 141 78 48 -9 107 -35 158 -69 98 -65 434 -413 682 -707 122 -144 160 -179 193 -179 80 0 34 138 -110 329 -84 111 -253 301 -384 431 -339 337 -577 440 -772 334 -64 -35 -150 -128 -168 -180 -8 -25 -16 -135 -21 -304 -8 -262 -21 -394 -40 -430 -28 -52 -116 -26 -290 84 -189 119 -529 432 -692 636 -80 100 -168 190 -205 209 -25 13 -72 14 -90 3 -33 -21 -37 -64 -38 -497 -2 -465 -6 -507 -52 -513 -30 -4 -109 37 -238 126 -234 160 -469 356 -715 597 -269 263 -378 336 -411 274 -13 -25 -13 -155 1 -283 11 -97 3 -149 -22 -154 -15 -3 -200 151 -323 269 -231 222 -421 350 -564 380 -176 36 -406 -36 -541 -171 -147 -147 -186 -301 -151 -600 10 -91 18 -166 17 -167 -4 -4 -273 -83 -322 -94 -53 -12 -55 -11 -72 11 -18 24 -94 159 -197 350 -117 217 -257 378 -401 461 -64 36 -189 69 -264 69 -189 0 -312 -76 -395 -243 -59 -119 -74 -203 -75 -416 l0 -164 -77 7 c-43 3 -145 11 -226 16 -82 6 -152 12 -157 15 -4 2 -10 73 -13 157 -8 213 -40 319 -143 475 -92 139 -221 239 -381 294 -83 28 -197 26 -293 -7z m3502 -949 c177 -37 348 -170 462 -360 59 -97 47 -174 -36 -228 -79 -51 -164 -47 -255 12 -121 79 -318 312 -382 453 -41 89 -44 103 -26 122 21 21 137 21 237 1z"/><path id="pRxDqtiRr" d="M10353 1805 c-116 -32 -196 -97 -244 -199 -76 -162 -76 -350 0 -511 39 -84 87 -135 163 -173 106 -54 209 -63 342 -30 l48 12 -5 54 c-3 30 -8 56 -10 58 -2 2 -25 -3 -51 -12 -75 -26 -192 -16 -253 22 -106 66 -159 189 -151 348 9 152 64 253 164 302 51 25 70 29 139 28 49 0 94 -7 117 -17 l37 -16 6 44 c11 69 6 79 -50 91 -69 16 -189 16 -252 -1z"/><path id="pY2nUKKqk" d="M10878 1813 l-58 -4 0 -465 0 -465 68 3 67 3 46 85 c25 47 85 159 134 250 49 91 105 195 124 232 20 38 42 68 49 68 9 0 12 -71 12 -320 l0 -320 60 0 60 0 0 465 0 465 -59 0 -58 0 -68 -127 c-38 -71 -103 -191 -145 -268 -42 -77 -94 -173 -115 -213 -21 -40 -42 -71 -47 -70 -6 2 -9 142 -8 346 0 188 -1 341 -2 340 -2 -1 -29 -3 -60 -5z"/><path id="pvpJ840lN" d="M11869 1807 c-180 -51 -279 -213 -279 -459 0 -114 16 -190 56 -269 112 -222 397 -276 578 -109 92 85 137 205 138 370 2 288 -134 465 -364 476 -50 2 -101 -1 -129 -9z m227 -142 c87 -51 137 -168 137 -320 0 -112 -20 -184 -70 -249 -51 -67 -108 -96 -188 -96 -115 0 -206 78 -241 206 -24 89 -16 260 15 330 29 65 96 131 152 149 59 20 142 11 195 -20z"/><path id="ppmUUFirC" d="M13330 1807 c-75 -22 -117 -46 -164 -97 -165 -177 -170 -519 -10 -717 44 -54 151 -108 232 -118 154 -18 311 66 381 204 52 100 71 296 41 421 -32 138 -126 258 -230 294 -69 24 -190 30 -250 13z m177 -122 c131 -39 211 -215 184 -409 -13 -93 -43 -158 -97 -213 -91 -91 -248 -85 -333 12 -161 183 -92 567 110 615 52 12 81 11 136 -5z"/><path id="p15IouA1v9" d="M14220 1804 c-162 -44 -268 -179 -293 -373 -48 -381 214 -628 571 -539 23 6 45 14 48 19 3 5 2 33 -1 62 l-7 53 -56 -19 c-70 -24 -199 -20 -250 7 -52 27 -112 93 -141 155 -24 51 -26 67 -26 181 0 114 2 130 26 180 56 120 134 173 254 174 108 1 105 6 105 -129 l0 -115 -55 0 -55 0 0 -60 0 -60 120 0 120 0 0 213 0 214 -26 12 c-88 40 -237 51 -334 25z"/><path id="p14aX0HoD4" d="M14990 1815 c1 0 89 -286 161 -520 48 -159 97 -317 108 -350 l19 -60 62 0 62 0 20 65 c10 36 50 164 88 285 78 251 170 559 170 569 0 4 -28 6 -62 4 l-62 -3 -33 -109 c-18 -60 -35 -111 -37 -113 -6 -6 -285 -5 -295 1 -5 3 -12 18 -16 33 -3 16 -18 65 -32 110 l-25 81 -64 4 c-35 2 -64 3 -64 3z m460 -369 c0 -8 -20 -80 -45 -162 -25 -81 -45 -155 -45 -165 0 -23 -15 -32 -28 -16 -12 14 -102 316 -102 341 0 14 15 16 110 16 87 0 110 -3 110 -14z"/><path id="ptx88hEeU" d="M7890 1345 l0 -465 250 0 250 0 0 60 0 60 -190 0 -190 0 0 135 0 135 145 0 145 0 0 60 0 59 -142 3 -143 3 0 150 0 150 193 3 192 2 0 55 0 55 -255 0 -255 0 0 -465z"/><path id="p1EQub4DeI" d="M8980 1405 l0 -405 -115 0 -115 0 0 -60 0 -60 295 0 295 0 0 60 0 60 -115 0 -115 0 0 405 0 405 -65 0 -65 0 0 -405z"/><path id="ptJVYCUrI" d="M9460 1345 l0 -465 250 0 250 0 0 60 0 60 -190 0 -190 0 0 135 0 134 148 3 147 3 3 57 3 57 -148 3 -148 3 0 150 0 150 193 3 192 2 0 55 0 55 -255 0 -255 0 0 -465z"/><path id="pF1HiOyja" d="M12520 1345 l0 -465 60 0 60 0 2 408 3 407 170 3 170 2 -3 55 -4 55 -229 0 -229 0 0 -465z"/><path id="pVvsVXufS" d="M14750 1345 l0 -465 60 0 60 0 0 465 0 465 -60 0 -60 0 0 -465z"/><path id="prboAhZnu" d="M3520 1510 c-86 -12 -213 -38 -277 -56 -85 -25 -97 -63 -26 -84 21 -6 144 -15 273 -20 267 -11 389 -24 450 -45 23 -8 57 -15 75 -15 53 0 95 61 95 139 0 42 -10 50 -100 71 -59 15 -407 21 -490 10z"/></g></g></svg>